<svg width="1024" height="1024" viewBox="0 0 1024 1024" fill="none" xmlns="http://www.w3.org/2000/svg">
  <defs>
    <linearGradient id="bgGradient" x1="0%" y1="0%" x2="100%" y2="100%">
      <stop offset="0%" style="stop-color:#1a1a2e;stop-opacity:1" />
      <stop offset="100%" style="stop-color:#0a0a0a;stop-opacity:1" />
    </linearGradient>
    
    <linearGradient id="mainGradient" x1="0%" y1="0%" x2="100%" y2="100%">
      <stop offset="0%" style="stop-color:#a78bfa;stop-opacity:1" />
      <stop offset="50%" style="stop-color:#9333ea;stop-opacity:1" />
      <stop offset="100%" style="stop-color:#ec4899;stop-opacity:1" />
    </linearGradient>
    
    <linearGradient id="accentGradient" x1="0%" y1="0%" x2="100%" y2="0%">
      <stop offset="0%" style="stop-color:#c084fc;stop-opacity:1" />
      <stop offset="100%" style="stop-color:#f472b6;stop-opacity:1" />
    </linearGradient>
    
    <filter id="glow">
      <feGaussianBlur stdDeviation="20" result="coloredBlur"/>
      <feMerge>
        <feMergeNode in="coloredBlur"/>
        <feMergeNode in="SourceGraphic"/>
      </feMerge>
    </filter>
    
    <filter id="shadow">
      <feDropShadow dx="0" dy="20" stdDeviation="30" flood-opacity="0.3"/>
    </filter>
  </defs>
  
  <rect width="1024" height="1024" rx="240" fill="url(#bgGradient)"/>
  
  <circle cx="200" cy="200" r="300" fill="url(#mainGradient)" opacity="0.1"/>
  <circle cx="824" cy="824" r="400" fill="url(#accentGradient)" opacity="0.08"/>
  
  <g transform="translate(512, 512)">
    <circle cx="0" cy="0" r="340" fill="none" stroke="url(#mainGradient)" stroke-width="8" opacity="0.3"/>
    <circle cx="0" cy="0" r="320" fill="none" stroke="url(#mainGradient)" stroke-width="4" opacity="0.2"/>
    
    <g filter="url(#shadow)">
      <circle cx="0" cy="0" r="280" fill="url(#mainGradient)" opacity="0.15"/>
      
      <path d="M -160 20 L -60 120 L 180 -120" 
            stroke="url(#mainGradient)" 
            stroke-width="60" 
            stroke-linecap="round" 
            stroke-linejoin="round" 
            fill="none"
            filter="url(#glow)"/>
      
      <g transform="translate(-80, -100)">
        <rect x="-100" y="-60" width="200" height="260" rx="20" fill="white" opacity="0.1"/>
        <rect x="-80" y="-40" width="160" height="40" rx="8" fill="url(#mainGradient)" opacity="0.3"/>
        <rect x="-80" y="20" width="120" height="20" rx="6" fill="url(#mainGradient)" opacity="0.2"/>
        <rect x="-80" y="60" width="140" height="20" rx="6" fill="url(#mainGradient)" opacity="0.2"/>
        <rect x="-80" y="100" width="100" height="20" rx="6" fill="url(#mainGradient)" opacity="0.2"/>
      </g>
    </g>
    
    <circle cx="-200" cy="-180" r="8" fill="url(#accentGradient)" opacity="0.6"/>
    <circle cx="220" cy="-160" r="12" fill="url(#mainGradient)" opacity="0.5"/>
    <circle cx="200" cy="200" r="6" fill="url(#accentGradient)" opacity="0.7"/>
    <circle cx="-180" cy="190" r="10" fill="url(#mainGradient)" opacity="0.4"/>
  </g>
</svg>